PathFileType	4	(X/Y/Z)	D:\TRACE\spot_10-12-23\spot_body_motion_3_3-v60.trc
DataRate	CameraRate	NumFrames	NumMarkers	Units	OrigDataRate	OrigDataStartFrame	OrigNumFrames
100.00	100.00	      14	9	mm	100.00	876	      7000
Frame#	Time	front left toe			Front right toe			aft left toe			aft right toe			Arm			FL body			FR body			AL Body			AR Body			
		X1	Y1	Z1	X2	Y2	Z2	X3	Y3	Z3	X4	Y4	Z4	X5	Y5	Z5	X6	Y6	Z6	X7	Y7	Z7	X8	Y8	Z8	X9	Y9	Z9	

876	8.750	-265.32336	26.44286	56.26309	323.81570	25.98117	39.05922	-244.33046	52.14103	598.59869	331.26801	46.48524	576.00256	32.54522	801.38153	-132.20859	-51.20916	539.64392	-97.93573	101.57549	544.92999	-104.22533	-21.70130	589.90802	784.07715	129.78651	589.43738	781.41119	
877	8.760	-265.32800	26.47659	56.29169	323.58163	26.11373	39.04823	-244.32263	52.00585	598.58813	331.24207	46.19254	576.07562	32.50809	801.31000	-132.08032	-51.24674	539.56921	-97.87443	101.51066	544.87573	-104.15378	-21.77630	589.73401	784.18054	129.84079	589.30017	781.47803	
878	8.770	-265.34271	26.50038	56.37067	323.82034	25.97606	39.23447	-244.28741	51.82504	598.64685	331.21341	45.88832	576.23676	32.35052	801.15521	-131.97385	-51.35974	539.42328	-97.78430	101.60135	544.35620	-103.52071	-21.72137	589.48425	784.15430	129.33698	588.92242	781.05896	
879	8.780	-265.41541	26.46443	56.43630	323.75439	25.97017	39.30915	-244.29510	51.61023	598.75690	331.23499	45.65866	576.30896	32.16471	801.02081	-131.86473	-51.48049	539.24469	-97.65633	101.54711	544.20648	-103.37330	-21.83243	589.30103	784.10095	129.35172	588.72644	781.16364	
880	8.790	-265.51459	26.46164	56.49456	323.71030	25.96821	39.38391	-244.34114	51.44350	598.92761	331.21884	45.53436	576.33228	31.94180	800.91528	-131.75943	-51.70854	539.02185	-97.58913	101.48504	544.08521	-103.25783	-21.58989	589.07800	784.48492	129.37695	588.51837	781.29718	
881	8.800	-265.54901	26.43883	56.60345	323.66174	26.02095	39.42498	-244.37125	51.23497	599.02942	331.25342	45.41537	576.44421	31.82993	800.78308	-131.67529	-51.87658	538.89594	-97.54370	100.98325	544.27521	-103.93890	-21.69230	589.31567	784.67639	129.34691	588.29553	781.33636	
882	8.810	-265.67926	26.42137	56.66651	323.65860	26.03317	39.52635	-244.43407	51.02053	599.09656	331.30823	45.30538	576.50873	31.72324	800.64722	-131.63290	-51.98104	538.77228	-97.48326	100.71997	544.12152	-103.95181	-21.61489	589.06799	784.80371	129.29955	588.12311	781.36987	
883	8.820	-265.70190	26.39965	56.73740	323.61441	26.04041	39.56787	-244.46909	50.80661	599.11646	331.28827	45.15825	576.53247	31.64999	800.50085	-131.58653	-52.11728	538.70135	-97.43784	100.57417	544.00104	-103.91150	-21.66598	588.81848	784.88275	129.12431	587.89996	781.40845	
884	8.830	-265.62012	26.59635	56.76686	323.62491	26.06078	39.65368	-244.47308	50.70555	599.10059	331.31958	45.11712	576.54224	31.62500	800.33832	-131.53116	-52.21675	538.57593	-97.37617	100.52020	543.89410	-103.81253	-21.67202	588.22687	784.82288	129.03236	587.72449	781.48358	
885	8.840	-265.62177	26.39240	56.85804	323.59732	25.96049	39.75169	-244.58008	50.08758	599.29877	331.34384	44.86009	576.67792	31.49837	800.01984	-131.48807	-52.28112	538.28656	-97.25753	100.49539	543.78119	-103.70976	-22.08299	587.91229	784.67676	128.86378	587.56372	781.60022	
886	8.850	-265.67877	26.31290	56.79766	323.55688	26.03248	39.75250	-244.59984	50.04470	599.26343	331.25705	44.76706	576.59094	31.17570	799.72821	-131.34807	-52.31713	537.96228	-97.13471	100.58914	543.45990	-103.15901	-22.06093	587.79565	784.84430	129.35417	587.75073	782.28552	
887	8.860	-265.74728	26.26677	56.85289	323.54120	26.06411	39.77564	-244.59608	49.91503	599.30298	331.28717	44.73787	576.67615	31.04617	799.42499	-131.36365	-52.36752	537.72321	-97.07610	100.52060	543.20770	-103.09856	-22.14091	587.72626	784.98621	128.73787	587.46490	781.85999	
888	8.870	-265.83633	26.28240	56.95685	323.57333	26.06471	39.87148	-244.55974	49.78374	599.31531	331.24347	44.43118	576.72693	31.13938	799.15961	-131.32402	-52.43835	537.53094	-96.95596	100.49775	542.96033	-103.01201	-22.31002	587.60181	785.06982	129.16731	587.59778	782.54486	
889	8.880	-265.86865	26.29680	57.01581	323.40677	26.13486	39.85667	-244.59653	49.66299	599.41718	331.15295	44.24456	576.72485	31.16851	799.00629	-131.18953	-52.42495	537.35461	-96.75941	100.66392	542.71838	-102.76862	-22.37403	587.50500	785.17725	129.10593	587.50879	782.84039	
